<svg width="244" height="137" viewBox="0 0 244 137" fill="none" xmlns="http://www.w3.org/2000/svg">
<mask id="mask0_312_2228" style="mask-type:luminance" maskUnits="userSpaceOnUse" x="41" y="52" width="28" height="33">
<path d="M41.125 52.3262H68.9628V84.7167H41.125V52.3262Z" fill="white"/>
</mask>
<g mask="url(#mask0_312_2228)">
<mask id="mask1_312_2228" style="mask-type:luminance" maskUnits="userSpaceOnUse" x="41" y="52" width="28" height="33">
<path d="M64.0009 73.3235L63.9943 73.3215C63.9614 74.506 63.5856 75.7371 62.6516 76.9347C61.2244 78.7646 58.9687 79.7615 56.6405 79.7615H51.4864C48.4917 79.7615 46.064 77.3459 46.064 74.3663V57.9861C46.064 57.5729 46.4001 57.2371 46.8148 57.2371H56.3959C57.4678 57.2371 58.5343 57.5447 59.3794 58.1999C60.7597 59.269 62.0214 61.4806 60.4275 65.9903C60.4275 65.9903 64.3397 68.2773 64.0009 73.3235ZM68.9289 72.341H68.9256C68.8314 68.6951 67.3166 66.0578 65.9007 64.3762C66.8222 58.5272 63.8275 55.4486 62.3938 54.3402C60.732 53.0547 58.6002 52.3477 56.3913 52.3477H46.8115C43.6883 52.3477 41.1465 54.876 41.1465 57.9861V74.3683C41.1465 80.0376 45.7832 84.6529 51.4831 84.6529H56.6359C60.5251 84.6529 64.2244 82.8893 66.5295 79.934C67.368 78.8597 67.9929 77.6916 68.3897 76.4612L68.484 76.1431C68.5552 75.9325 68.6178 75.7109 68.6725 75.4787L68.6989 75.3632C68.9981 73.9997 68.9434 72.6126 68.9303 72.343" fill="white"/>
</mask>
<g mask="url(#mask1_312_2228)">
<path d="M40.3203 51.5244H69.7685V85.5172H40.3203V51.5244Z" fill="#F65D07"/>
</g>
</g>
<mask id="mask2_312_2228" style="mask-type:luminance" maskUnits="userSpaceOnUse" x="51" y="61" width="5" height="5">
<path d="M51.4785 61.6162H55.7348V65.6032H51.4785V61.6162Z" fill="white"/>
</mask>
<g mask="url(#mask2_312_2228)">
<mask id="mask3_312_2228" style="mask-type:luminance" maskUnits="userSpaceOnUse" x="51" y="61" width="5" height="5">
<path d="M51.715 61.6377H53.655C54.6899 61.6377 55.6226 62.39 55.7123 63.4164C55.8131 64.5727 54.8982 65.544 53.7572 65.544H51.715C51.5911 65.544 51.4902 65.4437 51.4902 65.3197V61.8613C51.4902 61.738 51.5911 61.6377 51.715 61.6377Z" fill="white"/>
</mask>
<g mask="url(#mask3_312_2228)">
<path d="M40.3203 51.5254H69.7685V85.5182H40.3203V51.5254Z" fill="#F65D07"/>
</g>
</g>
<mask id="mask4_312_2228" style="mask-type:luminance" maskUnits="userSpaceOnUse" x="51" y="70" width="8" height="5">
<path d="M51.4785 70.5244H58.6102V74.5298H51.4785V70.5244Z" fill="white"/>
</mask>
<g mask="url(#mask4_312_2228)">
<mask id="mask5_312_2228" style="mask-type:luminance" maskUnits="userSpaceOnUse" x="51" y="70" width="8" height="5">
<path d="M56.5275 74.4591H51.7306C51.6067 74.4591 51.5059 74.3587 51.5059 74.2348V70.7764C51.5059 70.6531 51.6067 70.5527 51.7306 70.5527H56.6303C57.7714 70.5527 58.6856 71.5234 58.5848 72.6804C58.4951 73.7068 57.5631 74.4591 56.5275 74.4591Z" fill="white"/>
</mask>
<g mask="url(#mask5_312_2228)">
<path d="M40.3203 51.5244H69.7685V85.5172H40.3203V51.5244Z" fill="#F65D07"/>
</g>
</g>
<mask id="mask6_312_2228" style="mask-type:luminance" maskUnits="userSpaceOnUse" x="74" y="59" width="14" height="19">
<path d="M74.8125 59.6758H87.9117V77.8229H74.8125V59.6758Z" fill="white"/>
</mask>
<g mask="url(#mask6_312_2228)">
<mask id="mask7_312_2228" style="mask-type:luminance" maskUnits="userSpaceOnUse" x="74" y="59" width="14" height="19">
<path d="M83.5156 74.9141C84.7444 74.9141 85.8999 74.6216 86.4655 74.4485C87.1286 74.2779 87.4747 74.3271 87.6217 75.0361L87.8432 76.0396C88.0152 76.7984 87.7206 76.9696 87.2776 77.1159C86.2941 77.4825 84.8683 77.7757 83.1966 77.7757C77.6404 77.7757 74.8125 74.8407 74.8125 68.7267C74.8125 62.66 77.6635 59.6758 83.2447 59.6758C84.8914 59.6758 86.2921 59.9683 87.2763 60.3369C87.7192 60.4838 88.0132 60.6543 87.8418 61.4381L87.6197 62.4166C87.4483 63.1506 87.1042 63.1755 86.4642 63.0043C85.8735 62.8331 84.7674 62.5399 83.5387 62.5399C80.3173 62.5399 78.672 64.6676 78.672 68.728C78.672 72.8134 80.3193 74.9161 83.5156 74.9161" fill="white"/>
</mask>
<g mask="url(#mask7_312_2228)">
<path d="M74.8125 59.6758H87.8919V77.7724H74.8125V59.6758Z" fill="#494949"/>
</g>
</g>
<mask id="mask8_312_2228" style="mask-type:luminance" maskUnits="userSpaceOnUse" x="89" y="64" width="13" height="14">
<path d="M89.6582 64.3955H101.22V77.7771H89.6582V64.3955Z" fill="white"/>
</mask>
<g mask="url(#mask8_312_2228)">
<mask id="mask9_312_2228" style="mask-type:luminance" maskUnits="userSpaceOnUse" x="89" y="64" width="13" height="14">
<path d="M93.3727 73.961C93.3727 75.1356 94.0852 75.8695 95.4379 75.8695C96.7905 75.8695 97.6507 75.1356 97.6507 73.961C97.6507 72.8106 96.8156 71.9802 95.4379 71.9802C94.0852 71.9802 93.3727 72.7876 93.3727 73.961ZM93.9877 70.0959C95.5605 70.0959 96.9131 70.5846 97.6507 71.7349V70.0959C97.6507 67.8208 96.1511 67.3813 94.8479 67.3813C93.6917 67.3813 92.463 67.7237 91.9225 67.8699C91.3569 68.066 90.9884 67.9919 90.7188 67.258L90.3978 66.427C90.1269 65.6689 90.4472 65.3508 91.0365 65.1304C92.1176 64.7388 93.5941 64.3965 95.4616 64.3965C97.9698 64.3965 101.165 65.0333 101.165 69.6303V75.5258C101.165 77.4574 101.017 77.5315 99.1734 77.5315C97.9685 77.5315 97.6989 77.4324 97.6488 76.2348C96.9118 77.3846 95.511 77.7761 93.9119 77.7761C91.3074 77.7761 89.6602 76.4801 89.6602 74.0331C89.6602 71.4418 91.4544 70.0959 93.9864 70.0959" fill="white"/>
</mask>
<g mask="url(#mask9_312_2228)">
<path d="M88.834 63.5732H138.324V78.5978H88.834V63.5732Z" fill="#494949"/>
</g>
</g>
<mask id="mask10_312_2228" style="mask-type:luminance" maskUnits="userSpaceOnUse" x="102" y="64" width="11" height="14">
<path d="M102.518 64.3955H112.84V77.7771H102.518V64.3955Z" fill="white"/>
</mask>
<g mask="url(#mask10_312_2228)">
<mask id="mask11_312_2228" style="mask-type:luminance" maskUnits="userSpaceOnUse" x="102" y="64" width="11" height="14">
<path d="M109.422 73.839C109.422 71.3926 102.957 73.3261 102.957 68.4327C102.957 65.0333 105.981 64.3965 108.218 64.3965C109.891 64.3965 111.365 64.6667 112.103 64.91C112.741 65.1304 112.938 65.3744 112.741 66.0106L112.47 66.8665C112.273 67.5505 111.782 67.4784 111.289 67.3302C110.674 67.1839 109.667 66.9386 108.461 66.9386C107.134 66.9386 106.348 67.3059 106.348 68.2353C106.348 70.6075 112.837 68.5527 112.837 73.6415C112.837 77.1642 109.79 77.7748 107.602 77.7748C106.201 77.7748 103.939 77.5046 103.226 77.3105C102.661 77.1399 102.439 76.8697 102.588 76.2348L102.785 75.4517C102.932 74.7919 103.276 74.7178 103.792 74.7919C104.185 74.8411 105.906 75.2327 107.233 75.2327C108.683 75.2327 109.421 74.7919 109.421 73.839" fill="white"/>
</mask>
<g mask="url(#mask11_312_2228)">
<path d="M88.832 63.5742H138.322V78.5988H88.832V63.5742Z" fill="#494949"/>
</g>
</g>
<mask id="mask12_312_2228" style="mask-type:luminance" maskUnits="userSpaceOnUse" x="114" y="64" width="12" height="14">
<path d="M114.314 64.3955H125.876V77.7771H114.314V64.3955Z" fill="white"/>
</mask>
<g mask="url(#mask12_312_2228)">
<mask id="mask13_312_2228" style="mask-type:luminance" maskUnits="userSpaceOnUse" x="114" y="64" width="12" height="14">
<path d="M118.048 73.961C118.048 75.1356 118.76 75.8695 120.113 75.8695C121.466 75.8695 122.326 75.1356 122.326 73.961C122.326 72.8106 121.491 71.9802 120.113 71.9802C118.762 71.9802 118.048 72.7876 118.048 73.961ZM118.663 70.0959C120.236 70.0959 121.588 70.5846 122.326 71.7349V70.0959C122.326 67.8208 120.826 67.3813 119.523 67.3813C118.367 67.3813 117.138 67.7237 116.598 67.8699C116.032 68.066 115.664 67.9919 115.392 67.258L115.073 66.427C114.802 65.6689 115.122 65.3508 115.711 65.1304C116.794 64.7388 118.269 64.3965 120.136 64.3965C122.643 64.3965 125.839 65.0333 125.839 69.6303V75.5258C125.839 77.4574 125.692 77.5315 123.849 77.5315C122.643 77.5315 122.373 77.4324 122.324 76.2348C121.586 77.3846 120.186 77.7761 118.587 77.7761C115.981 77.7761 114.334 76.4801 114.334 74.0351C114.334 71.4418 116.128 70.0959 118.66 70.0959" fill="white"/>
</mask>
<g mask="url(#mask13_312_2228)">
<path d="M88.832 63.5742H138.322V78.5988H88.832V63.5742Z" fill="#494949"/>
</g>
</g>
<mask id="mask14_312_2228" style="mask-type:luminance" maskUnits="userSpaceOnUse" x="127" y="64" width="11" height="14">
<path d="M127.174 64.3955H137.524V77.7771H127.174V64.3955Z" fill="white"/>
</mask>
<g mask="url(#mask14_312_2228)">
<mask id="mask15_312_2228" style="mask-type:luminance" maskUnits="userSpaceOnUse" x="127" y="64" width="11" height="14">
<path d="M134.097 73.839C134.097 71.3926 127.631 73.3261 127.631 68.4327C127.633 65.0333 130.656 64.3965 132.893 64.3965C134.565 64.3965 136.04 64.6667 136.778 64.91C137.416 65.1304 137.613 65.3744 137.416 66.0106L137.145 66.8665C136.948 67.5505 136.457 67.4784 135.964 67.3302C135.348 67.1839 134.342 66.9386 133.136 66.9386C131.809 66.9386 131.023 67.3059 131.023 68.2353C131.023 70.6075 137.512 68.5527 137.512 73.6415C137.512 77.1642 134.464 77.7748 132.276 77.7748C130.876 77.7748 128.614 77.5046 127.901 77.3105C127.335 77.1399 127.114 76.8697 127.261 76.2348L127.457 75.4517C127.605 74.7919 127.948 74.7178 128.465 74.7919C128.858 74.8411 130.58 75.2327 131.906 75.2327C133.356 75.2327 134.093 74.7919 134.093 73.839" fill="white"/>
</mask>
<g mask="url(#mask15_312_2228)">
<path d="M88.832 63.5742H138.322V78.5988H88.832V63.5742Z" fill="#494949"/>
</g>
</g>
<mask id="mask16_312_2228" style="mask-type:luminance" maskUnits="userSpaceOnUse" x="140" y="58" width="16" height="20">
<path d="M140.977 58.8213H155.372V77.8256H140.977V58.8213Z" fill="white"/>
</mask>
<g mask="url(#mask16_312_2228)">
<mask id="mask17_312_2228" style="mask-type:luminance" maskUnits="userSpaceOnUse" x="140" y="58" width="16" height="20">
<path d="M151.505 72.0638C151.505 70.6557 150.811 69.2718 147.978 69.2718H144.582V74.6768C145.586 74.8296 147.079 74.9582 147.902 74.9582C150.657 74.9582 151.505 73.6517 151.505 72.0638ZM144.582 66.5572H147.335C149.729 66.5572 150.373 65.4304 150.373 64.0466C150.373 62.6889 149.807 61.6907 147.154 61.6907C146.28 61.6907 145.404 61.7924 144.607 62.0226C144.607 63.6878 144.607 64.968 144.58 66.5572M154.002 64.0466C154.002 65.9682 153.204 67.1973 151.53 67.7089C154.002 67.9903 155.317 69.6306 155.317 72.2678C155.317 75.3419 153.541 77.7751 147.517 77.7751C145.483 77.7751 141.107 77.4937 141.107 76.0325V67.6072C141.106 65.9669 140.977 61.4336 140.977 60.8709C140.977 59.3079 144.916 58.8213 147.181 58.8213C151.403 58.8213 154.002 60.537 154.002 64.0466Z" fill="white"/>
</mask>
<g mask="url(#mask17_312_2228)">
<path d="M140.977 58.8213H155.316V77.7699H140.977V58.8213Z" fill="#494949"/>
</g>
</g>
<mask id="mask18_312_2228" style="mask-type:luminance" maskUnits="userSpaceOnUse" x="157" y="63" width="11" height="15">
<path d="M157.035 63.7373H167.055V77.559H157.035V63.7373Z" fill="white"/>
</mask>
<g mask="url(#mask18_312_2228)">
<mask id="mask19_312_2228" style="mask-type:luminance" maskUnits="userSpaceOnUse" x="157" y="63" width="11" height="15">
<path d="M160.95 66.7364C161.851 64.7124 163.627 63.7646 165.172 63.7646C165.686 63.7646 166.202 63.7909 166.485 63.8932C167.025 64.0985 167.103 64.3798 166.974 64.9688L166.716 66.3265C166.562 66.9154 166.382 67.0682 165.686 66.9417C165.352 66.8912 164.889 66.8138 164.502 66.8138C162.802 66.8138 160.923 67.8382 160.872 72.9356V75.3675C160.872 77.4178 160.743 77.5194 158.787 77.5194C157.318 77.5194 157.191 77.3666 157.191 75.3675V73.2419C157.191 71.5255 157.062 66.1205 157.062 65.2502C157.062 64.0722 157.113 64.0211 159.225 64.0211C160.898 64.0211 160.95 64.0722 160.95 65.9165V66.7364Z" fill="white"/>
</mask>
<g mask="url(#mask19_312_2228)">
<path d="M156.234 62.9424H180.391V78.5985H156.234V62.9424Z" fill="#494949"/>
</g>
</g>
<mask id="mask20_312_2228" style="mask-type:luminance" maskUnits="userSpaceOnUse" x="167" y="63" width="13" height="15">
<path d="M167.486 63.7373H179.544V77.8036H167.486V63.7373Z" fill="white"/>
</mask>
<g mask="url(#mask20_312_2228)">
<mask id="mask21_312_2228" style="mask-type:luminance" maskUnits="userSpaceOnUse" x="167" y="63" width="13" height="15">
<path d="M171.375 73.7807C171.375 75.0098 172.123 75.7778 173.539 75.7778C174.954 75.7778 175.855 75.0098 175.855 73.7807C175.855 72.5765 174.981 71.7062 173.539 71.7062C172.123 71.7062 171.375 72.5516 171.375 73.7807ZM172.019 69.7333C173.666 69.7333 175.081 70.2449 175.855 71.4491V69.7346C175.855 67.3525 174.284 66.8921 172.921 66.8921C171.71 66.8921 170.424 67.2502 169.856 67.4037C169.264 67.609 168.877 67.5316 168.594 66.7636L168.259 65.8932C167.976 65.0983 168.31 64.7658 168.929 64.5356C170.063 64.1244 171.607 63.7656 173.563 63.7656C176.189 63.7656 179.536 64.432 179.536 69.248V75.421C179.536 77.445 179.383 77.5224 177.451 77.5224C176.189 77.5224 175.907 77.4201 175.855 76.1647C175.083 77.3689 173.615 77.7788 171.941 77.7788C169.213 77.7788 167.488 76.4212 167.488 73.8594C167.488 71.1448 169.367 69.7346 172.019 69.7346" fill="white"/>
</mask>
<g mask="url(#mask21_312_2228)">
<path d="M156.236 62.9424H180.393V78.5985H156.236V62.9424Z" fill="#494949"/>
</g>
</g>
<mask id="mask22_312_2228" style="mask-type:luminance" maskUnits="userSpaceOnUse" x="181" y="63" width="12" height="15">
<path d="M181.492 63.7129H192.328V77.8376H181.492V63.7129Z" fill="white"/>
</mask>
<g mask="url(#mask22_312_2228)">
<mask id="mask23_312_2228" style="mask-type:luminance" maskUnits="userSpaceOnUse" x="181" y="63" width="12" height="15">
<path d="M188.7 73.6515C188.7 71.0903 181.93 73.1137 181.93 67.9901C181.93 64.43 185.096 63.7637 187.44 63.7637C189.191 63.7637 190.735 64.045 191.508 64.3015C192.177 64.5317 192.382 64.7888 192.177 65.4551L191.895 66.3517C191.69 67.0692 191.173 66.9918 190.659 66.8384C190.016 66.6855 188.961 66.4291 187.7 66.4291C186.309 66.4291 185.485 66.8141 185.485 67.7861C185.485 70.2705 192.282 68.1186 192.282 73.4475C192.282 77.1367 189.09 77.7769 186.798 77.7769C185.331 77.7769 182.961 77.4955 182.216 77.2896C181.624 77.1105 181.393 76.8291 181.546 76.1628L181.751 75.343C181.905 74.6523 182.265 74.5749 182.807 74.6523C183.218 74.7028 185.021 75.1127 186.411 75.1127C187.931 75.1127 188.702 74.6523 188.702 73.6534" fill="white"/>
</mask>
<g mask="url(#mask23_312_2228)">
<path d="M180.67 58.459H198.226V78.5881H180.67V58.459Z" fill="#494949"/>
</g>
</g>
<mask id="mask24_312_2228" style="mask-type:luminance" maskUnits="userSpaceOnUse" x="193" y="63" width="5" height="15">
<path d="M193.494 63.9854H197.404V77.5637H193.494V63.9854Z" fill="white"/>
</mask>
<g mask="url(#mask24_312_2228)">
<mask id="mask25_312_2228" style="mask-type:luminance" maskUnits="userSpaceOnUse" x="193" y="64" width="5" height="14">
<path d="M193.512 65.2506C193.512 64.072 193.537 64.0215 195.674 64.0215C197.322 64.0215 197.4 64.072 197.4 65.9169C197.4 68.2479 197.322 70.8608 197.322 73.2429V75.4197C197.322 77.4437 197.142 77.5211 195.21 77.5211C193.768 77.5211 193.641 77.3926 193.641 75.4197V73.2416C193.641 71.5252 193.512 66.1209 193.512 65.2506Z" fill="white"/>
</mask>
<g mask="url(#mask25_312_2228)">
<path d="M180.67 58.458H198.226V78.5871H180.67V58.458Z" fill="#494949"/>
</g>
</g>
<mask id="mask26_312_2228" style="mask-type:luminance" maskUnits="userSpaceOnUse" x="193" y="59" width="5" height="5">
<path d="M193.355 59.2783H197.402V63.304H193.355V59.2783Z" fill="white"/>
</mask>
<g mask="url(#mask26_312_2228)">
<mask id="mask27_312_2228" style="mask-type:luminance" maskUnits="userSpaceOnUse" x="193" y="59" width="5" height="5">
<path d="M193.384 61.279C193.384 59.7272 193.875 59.2812 195.392 59.2812C196.951 59.2812 197.397 59.7272 197.397 61.279C197.397 62.7875 196.949 63.2978 195.392 63.2978C193.875 63.2978 193.319 62.8091 193.384 61.279Z" fill="white"/>
</mask>
<g mask="url(#mask27_312_2228)">
<path d="M180.67 58.459H198.226V78.5881H180.67V58.459Z" fill="#F65D07"/>
</g>
</g>
<mask id="mask28_312_2228" style="mask-type:luminance" maskUnits="userSpaceOnUse" x="199" y="58" width="5" height="20">
<path d="M199.793 58.4375H203.695V77.5323H199.793V58.4375Z" fill="white"/>
</mask>
<g mask="url(#mask28_312_2228)">
<mask id="mask29_312_2228" style="mask-type:luminance" maskUnits="userSpaceOnUse" x="199" y="58" width="5" height="20">
<path d="M203.603 67.659V75.4198C203.603 77.4438 203.447 77.5212 201.517 77.5212C200.051 77.5212 199.922 77.3926 199.922 75.4198V67.659C199.922 65.9412 199.793 60.5382 199.793 59.6666C199.793 58.488 199.817 58.4375 201.956 58.4375C203.629 58.4375 203.68 58.488 203.68 60.3329C203.68 62.6639 203.603 65.2769 203.603 67.6576" fill="white"/>
</mask>
<g mask="url(#mask29_312_2228)">
<path d="M199.793 58.4375H203.679V77.5172H199.793V58.4375Z" fill="#494949"/>
</g>
</g>
</svg>
