<svg width="244" height="137" viewBox="0 0 244 137" fill="none" xmlns="http://www.w3.org/2000/svg">
<mask id="mask0_312_2377" style="mask-type:luminance" maskUnits="userSpaceOnUse" x="183" y="54" width="17" height="27">
<path d="M183.092 54.5645H199.395V80.0848H183.092V54.5645Z" fill="white"/>
</mask>
<g mask="url(#mask0_312_2377)">
<mask id="mask1_312_2377" style="mask-type:luminance" maskUnits="userSpaceOnUse" x="183" y="54" width="17" height="27">
<path d="M199.311 67.4273L199.001 68.8754C198.543 70.763 197.613 72.4164 196.404 73.9203C194.406 76.406 191.904 78.3094 189.221 80.0002L189.178 80.0126C189.115 79.9202 189.103 79.8172 189.103 79.7149L189.098 75.2045C189.096 74.9651 189.168 74.7972 189.339 74.6287L194.506 69.4959C195.007 68.9968 195.004 68.7829 194.499 68.2786L193.011 66.8003C192.569 66.3628 192.324 66.3582 191.892 66.7871L185.533 73.1234C185.391 73.2658 185.376 73.5294 185.3 73.738C185.201 73.8292 185.068 73.902 185.009 74.0141L184.762 74.6588C184.352 75.6853 183.947 76.711 183.52 77.7302C183.454 77.889 183.291 78.0057 183.174 78.1428L183.172 77.7047C183.272 77.605 183.414 77.5236 183.465 77.4043L185.217 73.1451C185.577 72.2525 185.929 71.3559 186.262 70.4534L186.679 69.1037C187.411 68.3665 188.152 67.6371 188.87 66.8855C188.996 66.753 189.091 66.5353 189.095 66.3543L189.122 63.0986C189.201 63.0199 189.314 62.9556 189.351 62.8618L192.008 56.3018C192.235 55.7444 192.501 55.2013 192.751 54.6523C194.166 55.8782 195.421 57.2522 196.513 58.7666C197.785 60.5309 198.754 62.4381 199.138 64.6005L199.313 65.5928L199.311 67.4273Z" fill="white"/>
</mask>
<g mask="url(#mask1_312_2377)">
<path d="M167.674 46.3848H200.027V90.6471H167.674V46.3848Z" fill="#005B24"/>
</g>
</g>
<mask id="mask2_312_2377" style="mask-type:luminance" maskUnits="userSpaceOnUse" x="170" y="47" width="13" height="28">
<path d="M170.094 47.0137H182.075V74.0412H170.094V47.0137Z" fill="white"/>
</mask>
<g mask="url(#mask2_312_2377)">
<mask id="mask3_312_2377" style="mask-type:luminance" maskUnits="userSpaceOnUse" x="170" y="47" width="13" height="27">
<path d="M181.735 47.0977L182.044 47.3115C181.991 47.3744 181.916 47.4269 181.888 47.4997L180.998 49.6995C179.716 52.8968 178.432 56.0941 177.153 59.2928L176.343 61.4007C176.058 61.3791 175.853 61.486 175.651 61.7044L174.123 63.2385C173.655 63.7041 173.695 64.0963 174.198 64.5299L175.382 65.6658C175.307 65.8029 175.219 65.9354 175.161 66.079L172.789 72.0061C172.529 72.6606 172.297 73.325 172.052 73.9848L170.201 71.6401C170.27 71.5247 170.356 71.4158 170.405 71.2931L173.24 64.2387C174.67 60.6767 176.101 57.116 177.522 53.5507L178.038 52.0055C178.959 50.9305 179.915 49.8818 180.786 48.7668C181.167 48.2795 181.375 47.6578 181.66 47.0977H181.735Z" fill="white"/>
</mask>
<g mask="url(#mask3_312_2377)">
<path d="M167.674 46.3857H200.027V90.648H167.674V46.3857Z" fill="#005B24"/>
</g>
</g>
<mask id="mask4_312_2377" style="mask-type:luminance" maskUnits="userSpaceOnUse" x="168" y="51" width="11" height="21">
<path d="M168.305 51.917H178.163V71.6592H168.305V51.917Z" fill="white"/>
</mask>
<g mask="url(#mask4_312_2377)">
<mask id="mask5_312_2377" style="mask-type:luminance" maskUnits="userSpaceOnUse" x="168" y="52" width="11" height="20">
<path d="M178.038 52.0049L177.522 53.5501C176.101 57.1154 174.669 60.6774 173.239 64.2394L170.403 71.2945C170.354 71.4171 170.269 71.5254 170.199 71.6395C168.234 68.7281 167.806 65.6534 169.224 62.3938C170.161 60.2412 171.615 58.4383 173.23 56.7658C174.763 55.178 176.354 53.6472 177.922 52.0908L177.999 52.0324" fill="white"/>
</mask>
<g mask="url(#mask5_312_2377)">
<path d="M167.672 46.3848H200.025V90.6471H167.672V46.3848Z" fill="#005B24"/>
</g>
</g>
<mask id="mask6_312_2377" style="mask-type:luminance" maskUnits="userSpaceOnUse" x="180" y="50" width="9" height="20">
<path d="M180.725 50.2832H188.487V69.1452H180.725V50.2832Z" fill="white"/>
</mask>
<g mask="url(#mask6_312_2377)">
<mask id="mask7_312_2377" style="mask-type:luminance" maskUnits="userSpaceOnUse" x="180" y="50" width="9" height="20">
<path d="M187.078 50.3154L188.465 51.2533C188.415 51.4271 188.38 51.6081 188.313 51.7747L186.751 55.7007C186.569 55.6279 186.387 55.5578 186.208 55.4823C185.538 55.2016 185.336 55.3328 185.33 56.0785L185.328 58.8581C185.326 60.7837 185.32 62.7106 185.316 64.6369C185.184 64.8074 185.007 64.9615 184.928 65.1544L183.454 68.7708C183.409 68.8803 183.27 68.9531 183.174 69.043C183.299 68.2618 182.92 67.7312 182.351 67.2407C181.79 66.7579 181.299 66.1932 180.775 65.6659L181.607 63.6432C182.099 64.1233 182.592 64.6028 183.154 65.1498C183.154 64.9215 183.154 64.7923 183.154 64.6638L183.172 59.1329C183.423 59.1775 183.485 58.986 183.552 58.8194L186.479 51.4999C186.643 51.0907 186.877 50.7103 187.079 50.3154" fill="white"/>
</mask>
<g mask="url(#mask7_312_2377)">
<path d="M167.674 46.3857H200.027V90.648H167.674V46.3857Z" fill="#005B24"/>
</g>
</g>
<mask id="mask8_312_2377" style="mask-type:luminance" maskUnits="userSpaceOnUse" x="176" y="47" width="9" height="17">
<path d="M176.338 47.2646H184.1V63.1084H176.338V47.2646Z" fill="white"/>
</mask>
<g mask="url(#mask8_312_2377)">
<mask id="mask9_312_2377" style="mask-type:luminance" maskUnits="userSpaceOnUse" x="176" y="47" width="9" height="17">
<path d="M176.344 61.4002L177.153 59.2922C178.431 56.0936 179.715 52.8962 180.997 49.6989L181.887 47.4978C181.916 47.4263 181.99 47.3725 182.043 47.3096L184.021 48.4226C183.988 48.4882 183.951 48.5524 183.926 48.6193L181.508 54.6533C181.34 55.0783 181.215 55.5216 181.07 55.9565L179.914 56.5225C179.527 56.6904 179.363 56.9442 179.373 57.3745L179.365 60.3823C179.246 60.5803 179.109 60.7686 179.014 60.9771L178.116 63.0254C177.696 62.6174 177.282 62.2069 176.857 61.8061L176.345 61.4028" fill="white"/>
</mask>
<g mask="url(#mask9_312_2377)">
<path d="M167.674 46.3848H200.027V90.6471H167.674V46.3848Z" fill="#005B24"/>
</g>
</g>
<mask id="mask10_312_2377" style="mask-type:luminance" maskUnits="userSpaceOnUse" x="183" y="73" width="3" height="17">
<path d="M183.092 73.7051H185.367V89.9915H183.092V73.7051Z" fill="white"/>
</mask>
<g mask="url(#mask10_312_2377)">
<mask id="mask11_312_2377" style="mask-type:luminance" maskUnits="userSpaceOnUse" x="183" y="73" width="3" height="17">
<path d="M183.171 78.1431C183.29 78.0073 183.453 77.8892 183.519 77.7305L184.761 74.6591C184.847 74.4453 184.903 74.2171 185.008 74.0144C185.067 73.9022 185.2 73.8294 185.299 73.7383L185.326 74.0649C185.327 79.1977 185.327 84.3318 185.327 89.4653V89.7761C184.657 89.9539 184.002 89.9342 183.351 89.7886C183.271 89.7702 183.214 89.6318 183.155 89.5433L183.152 89.4725C183.152 85.7445 183.152 82.0527 183.154 78.3621L183.166 78.2172" fill="white"/>
</mask>
<g mask="url(#mask11_312_2377)">
<path d="M167.672 46.3857H200.025V90.648H167.672V46.3857Z" fill="#005B24"/>
</g>
</g>
<mask id="mask12_312_2377" style="mask-type:luminance" maskUnits="userSpaceOnUse" x="173" y="67" width="7" height="11">
<path d="M173.867 67.6357H179.428V77.8213H173.867V67.6357Z" fill="white"/>
</mask>
<g mask="url(#mask12_312_2377)">
<mask id="mask13_312_2377" style="mask-type:luminance" maskUnits="userSpaceOnUse" x="173" y="67" width="7" height="11">
<path d="M177.315 67.6426L179.226 69.4816C179.356 69.6174 179.345 69.8948 179.377 70.1119L179.367 70.5094C179.298 70.5848 179.201 70.6491 179.163 70.7376L178.563 72.193C177.822 74.0504 177.084 75.9091 176.347 77.7665L173.908 75.7937C173.979 75.6507 174.057 75.5129 174.116 75.366L176.981 68.2302C177.064 68.0236 177.202 67.838 177.315 67.6426Z" fill="white"/>
</mask>
<g mask="url(#mask13_312_2377)">
<path d="M167.676 46.3857H200.029V90.648H167.676V46.3857Z" fill="#005B24"/>
</g>
</g>
<mask id="mask14_312_2377" style="mask-type:luminance" maskUnits="userSpaceOnUse" x="171" y="65" width="7" height="11">
<path d="M171.971 65.6455H177.35V75.8088H171.971V65.6455Z" fill="white"/>
</mask>
<g mask="url(#mask14_312_2377)">
<mask id="mask15_312_2377" style="mask-type:luminance" maskUnits="userSpaceOnUse" x="172" y="65" width="6" height="11">
<path d="M177.315 67.6418L176.981 68.2295C176.022 70.607 175.072 72.9878 174.116 75.3653L173.908 75.7929C173.289 75.1895 172.672 74.5854 172.053 73.9827L172.791 72.0053C173.576 70.0265 174.37 68.0524 175.163 66.0782L175.384 65.665C176.027 66.3235 176.67 66.982 177.315 67.6418Z" fill="white"/>
</mask>
<g mask="url(#mask15_312_2377)">
<path d="M167.676 46.3848H200.029V90.6471H167.676V46.3848Z" fill="#005B24"/>
</g>
</g>
<mask id="mask16_312_2377" style="mask-type:luminance" maskUnits="userSpaceOnUse" x="183" y="64" width="4" height="14">
<path d="M183.092 64.6387H186.757V77.735H183.092V64.6387Z" fill="white"/>
</mask>
<g mask="url(#mask16_312_2377)">
<mask id="mask17_312_2377" style="mask-type:luminance" maskUnits="userSpaceOnUse" x="183" y="64" width="4" height="14">
<path d="M183.171 69.0457C183.267 68.9559 183.406 68.8831 183.451 68.7736L184.925 65.1571C185.004 64.965 185.181 64.8108 185.313 64.6396V70.3188C185.367 70.3516 185.42 70.3857 185.474 70.4185L186.675 69.1041C186.538 69.5547 186.422 70.0138 186.258 70.4539L185.212 73.1456C184.638 74.5694 184.053 75.9894 183.46 77.4047C183.41 77.5241 183.268 77.6054 183.168 77.7051L183.149 75.8792C183.148 73.7352 183.148 71.5898 183.149 69.4465L183.168 69.0457" fill="white"/>
</mask>
<g mask="url(#mask17_312_2377)">
<path d="M167.672 46.3857H200.025V90.648H167.672V46.3857Z" fill="#005B24"/>
</g>
</g>
<mask id="mask18_312_2377" style="mask-type:luminance" maskUnits="userSpaceOnUse" x="176" y="70" width="4" height="10">
<path d="M176.338 70.4023H179.427V79.9589H176.338V70.4023Z" fill="white"/>
</mask>
<g mask="url(#mask18_312_2377)">
<mask id="mask19_312_2377" style="mask-type:luminance" maskUnits="userSpaceOnUse" x="176" y="70" width="4" height="10">
<path d="M176.345 77.7666L178.561 72.193C178.755 71.7057 178.953 71.2191 179.16 70.739L179.363 70.5107C179.368 72.5623 179.375 74.6145 179.378 76.6673C179.379 77.7167 179.378 78.7654 179.378 79.9486C178.315 79.1845 177.329 78.4762 176.344 77.7679" fill="white"/>
</mask>
<g mask="url(#mask19_312_2377)">
<path d="M167.674 46.3857H200.027V90.648H167.674V46.3857Z" fill="#005B24"/>
</g>
</g>
<mask id="mask20_312_2377" style="mask-type:luminance" maskUnits="userSpaceOnUse" x="178" y="60" width="4" height="6">
<path d="M178.037 60.3428H181.702V65.7497H178.037V60.3428Z" fill="white"/>
</mask>
<g mask="url(#mask20_312_2377)">
<mask id="mask21_312_2377" style="mask-type:luminance" maskUnits="userSpaceOnUse" x="178" y="60" width="4" height="6">
<path d="M178.115 63.025L179.014 60.976C179.108 60.7681 179.247 60.5799 179.366 60.3818L179.376 61.0036C179.349 61.2915 179.442 61.4909 179.657 61.6962L181.606 63.6448C181.329 64.319 181.051 64.9932 180.774 65.6674L178.115 63.025Z" fill="white"/>
</mask>
<g mask="url(#mask21_312_2377)">
<path d="M167.674 46.3857H200.027V90.648H167.674V46.3857Z" fill="#005B24"/>
</g>
</g>
<mask id="mask22_312_2377" style="mask-type:luminance" maskUnits="userSpaceOnUse" x="188" y="52" width="5" height="12">
<path d="M188.779 52.7168H192.823V63.1083H188.779V52.7168Z" fill="white"/>
</mask>
<g mask="url(#mask22_312_2377)">
<mask id="mask23_312_2377" style="mask-type:luminance" maskUnits="userSpaceOnUse" x="188" y="52" width="5" height="12">
<path d="M189.12 63.0961L189.091 57.3534C189.087 57.1166 188.915 56.8844 188.82 56.649L189.651 54.5083C189.902 53.9049 190.188 53.3165 190.459 52.7217L192.748 54.6519C192.499 55.2008 192.232 55.7439 192.005 56.3014L189.35 62.8613C189.311 62.9551 189.199 63.0194 189.121 63.0981" fill="white"/>
</mask>
<g mask="url(#mask23_312_2377)">
<path d="M167.674 46.3848H200.027V90.6471H167.674V46.3848Z" fill="#005B24"/>
</g>
</g>
<mask id="mask24_312_2377" style="mask-type:luminance" maskUnits="userSpaceOnUse" x="181" y="48" width="7" height="12">
<path d="M181.07 48.3965H187.137V59.2104H181.07V48.3965Z" fill="white"/>
</mask>
<g mask="url(#mask24_312_2377)">
<mask id="mask25_312_2377" style="mask-type:luminance" maskUnits="userSpaceOnUse" x="181" y="48" width="7" height="12">
<path d="M181.07 55.9566L181.509 54.6534C182.307 52.6412 183.118 50.6323 183.926 48.6214L183.99 48.4902C184.944 48.9834 185.865 49.539 186.785 50.101L187.077 50.3162C186.876 50.711 186.642 51.0914 186.477 51.5007L183.55 58.8201C183.483 58.9887 183.422 59.1782 183.17 59.1336L183.153 58.7316C183.152 57.7799 183.161 56.8263 183.149 55.874C183.142 55.2883 182.798 55.0856 182.277 55.3434L181.07 55.9566Z" fill="white"/>
</mask>
<g mask="url(#mask25_312_2377)">
<path d="M167.674 46.3848H200.027V90.6471H167.674V46.3848Z" fill="#005B24"/>
</g>
</g>
<mask id="mask26_312_2377" style="mask-type:luminance" maskUnits="userSpaceOnUse" x="186" y="51" width="5" height="6">
<path d="M186.631 51.2061H190.512V56.6956H186.631V51.2061Z" fill="white"/>
</mask>
<g mask="url(#mask26_312_2377)">
<mask id="mask27_312_2377" style="mask-type:luminance" maskUnits="userSpaceOnUse" x="186" y="51" width="5" height="6">
<path d="M190.459 52.7217L189.65 54.5083C189.356 55.2153 189.094 55.9348 188.819 56.649L186.75 55.7013C187.272 54.3929 187.795 53.0857 188.312 51.7753L188.463 51.2539C189.127 51.7425 189.793 52.2331 190.458 52.7217" fill="white"/>
</mask>
<g mask="url(#mask27_312_2377)">
<path d="M167.674 46.3848H200.027V90.6471H167.674V46.3848Z" fill="#005B24"/>
</g>
</g>
<mask id="mask28_312_2377" style="mask-type:luminance" maskUnits="userSpaceOnUse" x="75" y="59" width="27" height="20">
<path d="M75.1992 59.0762H101.207V78.0044H75.1992V59.0762Z" fill="white"/>
</mask>
<g mask="url(#mask28_312_2377)">
<mask id="mask29_312_2377" style="mask-type:luminance" maskUnits="userSpaceOnUse" x="75" y="59" width="27" height="19">
<path d="M91.6956 59.0791H101.123C101.058 59.2168 101.03 59.3874 100.958 59.407C100.272 59.6117 100.01 60.1842 99.8608 60.7673C99.6183 61.7131 99.346 62.6818 99.3164 63.6459C99.226 66.6137 99.2043 69.586 99.2386 72.5558C99.2544 73.9036 99.4482 75.2527 99.9432 76.5297C100.131 77.0137 100.364 77.4794 100.941 77.6387C101.014 77.6591 101.057 77.7955 101.147 77.9286H91.6672C91.7219 77.8126 91.7483 77.6591 91.8043 77.6466C92.4154 77.5154 92.7068 77.0399 92.8399 76.5376C93.1187 75.4928 93.445 74.4283 93.4905 73.3605C93.6197 70.3678 93.6145 67.3705 93.5947 64.3621C91.5229 68.8403 89.0964 73.1513 87.7016 77.947H85.2851C84.1757 73.1822 82.0485 68.8003 80.328 64.269L80.2568 64.2735C80.2206 64.8678 80.2259 65.4607 80.2193 66.0536L80.1678 70.3121C80.1494 72.2666 80.2377 74.2112 80.7868 76.1027C80.8989 76.489 81.1012 76.8609 81.3221 77.1993C81.442 77.3823 81.6892 77.4813 81.8738 77.625L82.1058 77.8401C82.0874 77.8683 82.0683 77.8958 82.0511 77.924H75.2563C75.3268 77.808 75.3637 77.6604 75.4369 77.642C75.9458 77.501 76.1838 77.1082 76.3729 76.6779C76.835 75.6305 77.0453 74.5083 77.0638 73.3881C77.1165 70.1403 77.1369 66.8891 77.0526 63.6426C77.0249 62.5781 76.6749 61.515 76.3993 60.4689C76.2767 60.0032 75.9919 59.5789 75.4494 59.4228C75.3637 59.3979 75.3169 59.2339 75.2207 59.0824H84.1776C84.9284 62.6477 86.4966 65.9034 87.7234 69.3139C89.167 67.2499 91.2941 61.759 91.6969 59.0791" fill="white"/>
</mask>
<g mask="url(#mask29_312_2377)">
<path d="M43.9746 58.2773H158.601V78.7233H43.9746V58.2773Z" fill="#005B24"/>
</g>
</g>
<mask id="mask30_312_2377" style="mask-type:luminance" maskUnits="userSpaceOnUse" x="101" y="58" width="20" height="21">
<path d="M101.527 58.9961H120.793V78.0044H101.527V58.9961Z" fill="white"/>
</mask>
<g mask="url(#mask30_312_2377)">
<mask id="mask31_312_2377" style="mask-type:luminance" maskUnits="userSpaceOnUse" x="101" y="59" width="20" height="19">
<path d="M109.067 67.2001C109.838 67.2001 110.597 67.2388 111.351 67.1909C112.57 67.1135 113.479 66.3783 113.829 65.2672C114.199 64.0926 113.837 62.7881 112.955 62.041C111.804 61.0658 110.428 61.2455 109.067 61.2284V67.2001ZM109.073 69.1454V75.8004C109.865 75.8004 110.638 75.8273 111.407 75.7945C112.832 75.7355 113.839 75.035 114.445 73.7567C115.193 72.1814 114.555 70.36 112.997 69.5999C111.753 68.9939 110.429 69.1263 109.073 69.1434M101.555 59.0746L101.776 59.0562C105.58 59.0588 109.308 59.0346 113.034 59.0778C114.594 59.0949 116.109 59.4287 117.449 60.2833C118.686 61.071 119.501 62.146 119.495 63.6689C119.49 65.0567 118.842 66.1572 117.692 66.8971C116.994 67.3457 116.184 67.6192 115.587 67.8979C116.728 67.9163 117.995 68.2062 119.075 69.0568C121.087 70.6447 121.293 73.3947 119.551 75.2698C118.381 76.5297 116.876 77.164 115.243 77.5476C113.887 77.8664 112.504 77.9576 111.112 77.9516L101.978 77.93C101.911 77.93 101.836 77.9484 101.779 77.9254L101.631 77.8434C101.583 77.7523 101.658 77.6362 101.71 77.6204C102.294 77.4519 102.594 76.9967 102.723 76.4786C102.982 75.4292 103.313 74.366 103.351 73.3003C103.457 70.3849 103.483 67.4631 103.423 64.5478C103.398 63.3285 103.124 62.1047 102.868 60.9038C102.729 60.2571 102.465 59.596 101.689 59.373C101.628 59.3559 101.609 59.1985 101.557 59.0746" fill="white"/>
</mask>
<g mask="url(#mask31_312_2377)">
<path d="M43.9727 58.2773H158.599V78.7233H43.9727V58.2773Z" fill="#005B24"/>
</g>
</g>
<mask id="mask32_312_2377" style="mask-type:luminance" maskUnits="userSpaceOnUse" x="138" y="58" width="20" height="21">
<path d="M138.707 58.9961H157.878V78.0044H138.707V58.9961Z" fill="white"/>
</mask>
<g mask="url(#mask32_312_2377)">
<mask id="mask33_312_2377" style="mask-type:luminance" maskUnits="userSpaceOnUse" x="138" y="59" width="20" height="19">
<path d="M146.261 68.7314L148.049 68.6403C149.742 68.4881 150.976 67.4545 151.386 65.8594C151.788 64.284 151.113 62.4922 149.73 61.6284C148.643 60.9496 147.44 61.2388 146.262 61.2139L146.261 68.7314ZM146.245 70.6643C146.298 72.7315 146.329 74.6814 147.019 76.5415C147.198 77.0288 147.46 77.482 148.044 77.6263C148.115 77.6427 148.15 77.7994 148.228 77.9339H138.715C138.81 77.7915 138.852 77.6446 138.931 77.6197C139.461 77.4544 139.765 77.0471 139.888 76.5736C140.16 75.5275 140.503 74.4663 140.542 73.3999C140.653 70.4459 140.662 67.4859 140.628 64.5286C140.612 63.1684 140.432 61.8035 139.931 60.5128C139.737 60.013 139.491 59.5441 138.901 59.3788C138.835 59.3598 138.803 59.2116 138.723 59.0646H139.197C142.562 59.0646 145.928 59.0581 149.295 59.0679C150.877 59.0725 152.429 59.2443 153.91 59.8648C156.935 61.1332 158.02 64.3798 156.354 67.1888C155.493 68.6416 154.244 69.6149 152.672 70.2045L152.378 70.316C152.378 70.3481 152.367 70.3842 152.379 70.3947C153.732 71.5753 154.588 73.1401 155.637 74.5562C155.975 75.0107 156.368 75.433 156.786 75.8187C156.986 76.0043 157.291 76.1033 157.566 76.182C157.842 76.2614 157.917 76.3709 157.73 76.592C157.048 77.3908 156.221 77.9247 155.13 77.945L153.728 77.9476C152.398 77.968 151.381 77.3692 150.676 76.3001C149.83 75.0153 149.092 73.6616 148.245 72.3787C147.902 71.8573 147.41 71.4257 146.951 70.9889C146.794 70.8387 146.535 70.7928 146.244 70.6643" fill="white"/>
</mask>
<g mask="url(#mask33_312_2377)">
<path d="M43.9727 58.2773H158.599V78.7233H43.9727V58.2773Z" fill="#005B24"/>
</g>
</g>
<mask id="mask34_312_2377" style="mask-type:luminance" maskUnits="userSpaceOnUse" x="120" y="58" width="19" height="21">
<path d="M120.818 58.9961H138.692V78.0044H120.818V58.9961Z" fill="white"/>
</mask>
<g mask="url(#mask34_312_2377)">
<mask id="mask35_312_2377" style="mask-type:luminance" maskUnits="userSpaceOnUse" x="120" y="59" width="19" height="19">
<path d="M137.569 59.0759C137.714 60.7982 137.856 62.4818 138.008 64.2834C137.826 64.1424 137.722 64.0788 137.638 63.9955C136.435 62.7913 134.928 62.182 133.292 61.8751C131.687 61.5734 130.058 61.5688 128.401 61.6167V67.2958C130.679 67.1679 133.014 67.2637 134.493 64.9891L134.537 65.0462L134.559 71.7262C134.445 71.6462 134.345 71.6088 134.302 71.5373C133.549 70.318 132.339 69.874 131.016 69.67C130.162 69.5382 129.294 69.5028 128.4 69.4221V75.4725C129.949 75.4062 131.493 75.3754 133.031 75.2619C134.26 75.1708 135.46 74.8802 136.532 74.2499C137.112 73.9095 137.627 73.4577 138.172 73.0569C138.286 72.9723 138.404 72.8884 138.623 72.7323C138.459 74.5503 138.307 76.2326 138.155 77.93H120.84C120.936 77.789 120.981 77.6408 121.065 77.6126C121.593 77.4394 121.893 77.0308 122.015 76.5573C122.286 75.5099 122.637 74.4467 122.666 73.3822C122.749 70.1357 122.732 66.8846 122.675 63.6361C122.659 62.7218 122.418 61.801 122.191 60.9051C122.026 60.2584 121.785 59.5973 121.011 59.3703C120.95 59.3513 120.928 59.1965 120.875 59.0732L137.569 59.0759Z" fill="white"/>
</mask>
<g mask="url(#mask35_312_2377)">
<path d="M43.9727 58.2773H158.599V78.7233H43.9727V58.2773Z" fill="#005B24"/>
</g>
</g>
<mask id="mask36_312_2377" style="mask-type:luminance" maskUnits="userSpaceOnUse" x="44" y="59" width="22" height="20">
<path d="M44.7754 59.0762H65.2996V78.0044H44.7754V59.0762Z" fill="white"/>
</mask>
<g mask="url(#mask36_312_2377)">
<mask id="mask37_312_2377" style="mask-type:luminance" maskUnits="userSpaceOnUse" x="44" y="59" width="22" height="19">
<path d="M50.2293 77.9313C50.3038 77.7981 50.338 77.6453 50.4112 77.6237C50.9616 77.4577 51.2589 77.0262 51.3861 76.5435C51.6584 75.5098 52.0018 74.4578 52.0348 73.4038C52.1574 69.4916 52.1666 65.5767 52.218 61.6186C50.814 61.6337 49.4982 61.795 48.2214 62.1866C46.9347 62.5808 45.8108 63.2615 44.8668 64.2401L44.7891 64.1916C44.8912 62.4771 45.033 60.7843 45.1747 59.0791H64.8439C64.987 60.7706 65.13 62.4647 65.2731 64.1581L65.2217 64.2276C63.1406 62.1354 60.5217 61.6665 57.7129 61.612V62.0797C57.7129 65.134 57.6958 68.1871 57.7189 71.2421C57.7314 72.8608 57.856 74.4775 58.3332 76.0371C58.4657 76.4707 58.7129 76.8779 58.9601 77.2629C59.0629 77.4223 59.3101 77.484 59.4795 77.6066C59.5698 77.6715 59.6351 77.7706 59.7828 77.9313H50.2293Z" fill="white"/>
</mask>
<g mask="url(#mask37_312_2377)">
<path d="M43.9727 58.2773H158.599V78.7233H43.9727V58.2773Z" fill="#005B24"/>
</g>
</g>
<mask id="mask38_312_2377" style="mask-type:luminance" maskUnits="userSpaceOnUse" x="65" y="59" width="10" height="20">
<path d="M65.3242 59.0762H74.8764V78.0044H65.3242V59.0762Z" fill="white"/>
</mask>
<g mask="url(#mask38_312_2377)">
<mask id="mask39_312_2377" style="mask-type:luminance" maskUnits="userSpaceOnUse" x="65" y="59" width="10" height="19">
<path d="M74.8607 77.9299H65.385C65.4562 77.7981 65.4872 77.6433 65.5604 77.6216C66.1253 77.4518 66.4285 77.0137 66.5557 76.5126C66.8201 75.477 67.153 74.4282 67.1905 73.3743C67.296 70.4327 67.3072 67.4846 67.2742 64.5417C67.2591 63.1677 67.0771 61.7884 66.5702 60.4872C66.3804 60.0012 66.1312 59.5467 65.5624 59.3807C65.4905 59.3604 65.4516 59.2246 65.3633 59.0869H74.8436C74.7895 59.1984 74.7612 59.3578 74.6959 59.3729C74.0961 59.5218 73.7942 59.9861 73.6637 60.4937C73.3914 61.5536 73.0539 62.6338 73.0256 63.7134C72.9419 66.9074 72.9544 70.1061 73.021 73.3001C73.0414 74.278 73.3169 75.2618 73.5575 76.2214C73.7118 76.8326 73.9748 77.438 74.7085 77.6282C74.7724 77.6452 74.7988 77.8 74.8607 77.9286" fill="white"/>
</mask>
<g mask="url(#mask39_312_2377)">
<path d="M43.9727 58.2773H158.599V78.7233H43.9727V58.2773Z" fill="#005B24"/>
</g>
</g>
<path d="M68.2899 83.5025C68.0737 83.3714 67.8522 83.2704 67.6255 83.1982C67.3987 83.1267 67.199 83.0906 67.027 83.0906C66.8351 83.0906 66.6829 83.1267 66.5708 83.1982C66.4581 83.2704 66.4021 83.37 66.4021 83.4973C66.4021 83.6127 66.4403 83.7098 66.5181 83.7885C66.5972 83.8659 66.6954 83.9295 66.8134 83.98C66.9307 84.0292 67.0929 84.0836 67.2985 84.1427C67.5833 84.2266 67.816 84.3106 67.9973 84.3945C68.1799 84.4771 68.3354 84.6004 68.464 84.7644C68.5918 84.9271 68.6564 85.1422 68.6564 85.4098C68.6564 85.6656 68.5866 85.8873 68.4481 86.0761C68.311 86.265 68.1212 86.4093 67.8786 86.509C67.636 86.6087 67.3579 86.6585 67.0454 86.6585C66.7165 86.6585 66.3955 86.5982 66.083 86.4775C65.7719 86.3555 65.499 86.1929 65.2656 85.9896L65.6031 85.3075C65.8154 85.5036 66.054 85.6577 66.3177 85.7692C66.5827 85.8794 66.8299 85.9345 67.0586 85.9345C67.2814 85.9345 67.4574 85.8918 67.5859 85.8059C67.7138 85.7207 67.7784 85.6039 67.7784 85.457C67.7784 85.3383 67.7389 85.2406 67.6598 85.1632C67.582 85.0845 67.4831 85.0215 67.3618 84.9743C67.2418 84.9258 67.0784 84.8713 66.8714 84.8116C66.5866 84.7277 66.3533 84.6464 66.1727 84.5677C65.9934 84.4876 65.8391 84.367 65.7112 84.2056C65.5827 84.043 65.5188 83.8305 65.5188 83.5681C65.5188 83.3254 65.5833 83.1136 65.7139 82.9332C65.8437 82.7516 66.0276 82.6106 66.2649 82.5109C66.5036 82.4112 66.7798 82.3613 67.0929 82.3613C67.3651 82.3613 67.6341 82.402 67.8997 82.482C68.1667 82.5607 68.4046 82.6676 68.6143 82.8021L68.2899 83.5025Z" fill="#005B24"/>
<path d="M71.3311 82.3721C71.7477 82.3721 72.126 82.4659 72.4675 82.6528C72.8103 82.8404 73.0799 83.0975 73.277 83.4241C73.4734 83.7514 73.5723 84.114 73.5723 84.5128C73.5723 84.9116 73.4734 85.2756 73.277 85.6042C73.0799 85.9334 72.8103 86.1938 72.4675 86.386C72.126 86.5768 71.7477 86.6719 71.3311 86.6719C70.9145 86.6719 70.5348 86.5768 70.192 86.386C69.8492 86.1938 69.579 85.9334 69.3825 85.6042C69.1874 85.2756 69.0898 84.9116 69.0898 84.5128C69.0898 84.114 69.1874 83.7514 69.3825 83.4241C69.579 83.0975 69.8492 82.8404 70.192 82.6528C70.5348 82.4659 70.9145 82.3721 71.3311 82.3721ZM71.3416 83.0909C71.0845 83.0909 70.8466 83.1539 70.6271 83.2798C70.4069 83.4044 70.2329 83.5756 70.105 83.794C69.9764 84.0111 69.9125 84.2505 69.9125 84.5128C69.9125 84.7752 69.9771 85.0165 70.1076 85.2369C70.2375 85.4559 70.4115 85.6291 70.6297 85.7563C70.8472 85.8842 71.0845 85.9478 71.3416 85.9478C71.5947 85.9478 71.8294 85.8842 72.0456 85.7563C72.2618 85.6291 72.4332 85.4559 72.5598 85.2369C72.6863 85.0165 72.7496 84.7752 72.7496 84.5128C72.7496 84.2505 72.6863 84.0111 72.5598 83.794C72.4332 83.5756 72.2618 83.4044 72.0456 83.2798C71.8294 83.1539 71.5947 83.0909 71.3416 83.0909Z" fill="#005B24"/>
<path d="M74.2793 82.4268H75.0835V85.8871H76.9002V86.6112H74.2793V82.4268Z" fill="#005B24"/>
<path d="M78.258 84.8902C78.258 85.2207 78.3516 85.4798 78.5401 85.6667C78.728 85.8543 78.9805 85.9474 79.2969 85.9474C79.6133 85.9474 79.8618 85.8543 80.0431 85.6667C80.2257 85.4798 80.3173 85.2207 80.3173 84.8902V82.4268H81.1241V84.8902C81.1241 85.2522 81.049 85.5683 80.9 85.8373C80.7523 86.1068 80.5414 86.3134 80.2672 86.4564C79.993 86.6 79.6693 86.6715 79.2969 86.6715C78.9205 86.6715 78.5929 86.6 78.3134 86.4564C78.0352 86.3134 77.8216 86.1068 77.6727 85.8373C77.525 85.5683 77.4512 85.2522 77.4512 84.8902V82.4268H78.258V84.8902Z" fill="#005B24"/>
<path d="M85.5938 85.9478C85.3986 86.1439 85.1745 86.3046 84.9214 86.4306C84.6696 86.5552 84.4112 86.6306 84.1462 86.6588L84.046 86.929C84.2128 86.9566 84.336 87.0136 84.4151 87.0995C84.4956 87.1848 84.5364 87.2871 84.5364 87.4065C84.5364 87.5809 84.4692 87.7147 84.336 87.8079C84.2022 87.9023 84.0308 87.9495 83.8219 87.9495C83.6268 87.9495 83.4264 87.9082 83.2207 87.8262L83.3657 87.4065C83.4903 87.4498 83.6043 87.4721 83.7085 87.4721C83.7836 87.4721 83.8436 87.4576 83.8878 87.4301C83.9313 87.4019 83.9537 87.3678 83.9537 87.3278C83.9537 87.2838 83.9273 87.2478 83.8746 87.2202C83.8232 87.194 83.7494 87.1809 83.6531 87.1809H83.4738L83.6479 86.6536C83.2873 86.6103 82.9623 86.4896 82.6723 86.2915C82.3822 86.0941 82.1542 85.8403 81.9894 85.5307C81.8259 85.2198 81.7441 84.8801 81.7441 84.5128C81.7441 84.114 81.8417 83.7514 82.0368 83.4241C82.2333 83.0975 82.5009 82.8404 82.8384 82.6528C83.1772 82.4659 83.5536 82.3721 83.9669 82.3721C84.2675 82.3721 84.5615 82.4324 84.8502 82.5531C85.1383 82.6725 85.3841 82.8377 85.5885 83.0489L85.1191 83.634C84.9715 83.4628 84.7961 83.3296 84.5944 83.2352C84.3921 83.1394 84.1864 83.0909 83.9774 83.0909C83.7171 83.0909 83.4791 83.1532 83.2629 83.2772C83.0467 83.3998 82.876 83.5697 82.7514 83.7861C82.6281 84.0032 82.5668 84.2419 82.5668 84.5023C82.5668 84.7614 82.6281 84.9995 82.7514 85.2159C82.876 85.433 83.0467 85.6042 83.2629 85.7301C83.4791 85.856 83.7171 85.919 83.9774 85.919C84.1778 85.919 84.3789 85.8757 84.5813 85.7878C84.7849 85.6986 84.9642 85.5766 85.1191 85.4205L85.5938 85.9478Z" fill="#005B24"/>
<path d="M88.167 82.372C88.5836 82.372 88.962 82.4658 89.3034 82.6527C89.6462 82.8403 89.9158 83.0974 90.1129 83.424C90.3093 83.7513 90.4082 84.114 90.4082 84.5128C90.4082 84.9115 90.3093 85.2755 90.1129 85.6041C89.9158 85.9334 89.6462 86.1938 89.3034 86.3859C88.962 86.5768 88.5836 86.6719 88.167 86.6719C87.7504 86.6719 87.3707 86.5768 87.0279 86.3859C86.6852 86.1938 86.4149 85.9334 86.2185 85.6041C86.0233 85.2755 85.9258 84.9115 85.9258 84.5128C85.9258 84.114 86.0233 83.7513 86.2185 83.424C86.4149 83.0974 86.6852 82.8403 87.0279 82.6527C87.3707 82.4658 87.7504 82.372 88.167 82.372ZM88.1775 83.0909C87.9205 83.0909 87.6825 83.1538 87.463 83.2798C87.2428 83.4044 87.0688 83.5755 86.9409 83.7939C86.8124 84.011 86.7484 84.2504 86.7484 84.5128C86.7484 84.7751 86.813 85.0165 86.9436 85.2369C87.0734 85.4559 87.2474 85.6291 87.4656 85.7563C87.6832 85.8842 87.9205 85.9478 88.1775 85.9478C88.4307 85.9478 88.6653 85.8842 88.8815 85.7563C89.0978 85.6291 89.2691 85.4559 89.3957 85.2369C89.5223 85.0165 89.5855 84.7751 89.5855 84.5128C89.5855 84.2504 89.5223 84.011 89.3957 83.7939C89.2691 83.5755 89.0978 83.4044 88.8815 83.2798C88.6653 83.1538 88.4307 83.0909 88.1775 83.0909ZM89.1716 81.2492C89.1716 81.8073 88.9949 82.0861 88.6416 82.0861C88.5533 82.0861 88.4682 82.0703 88.3858 82.0389C88.3028 82.0061 88.2125 81.9615 88.1143 81.9051C87.9857 81.8336 87.8954 81.7975 87.8427 81.7975C87.7827 81.7975 87.7405 81.8211 87.7161 81.8683C87.6911 81.9142 87.6792 81.9805 87.6792 82.0677H87.1809C87.1809 81.5063 87.3555 81.2256 87.7056 81.2256C87.7932 81.2256 87.8776 81.2413 87.9587 81.2728C88.0411 81.3043 88.1327 81.3482 88.2329 81.404C88.3608 81.4761 88.4518 81.5115 88.5045 81.5115C88.5638 81.5115 88.6053 81.4892 88.6284 81.4433C88.6528 81.3981 88.6653 81.3331 88.6653 81.2492H89.1716Z" fill="#005B24"/>
<path d="M91.1172 82.4268H94.1995V83.1246H91.9214V84.1609H93.9648V84.8587H91.9214V85.9107H94.2707V86.6112H91.1172V82.4268Z" fill="#005B24"/>
<path d="M97.7333 83.5025C97.5171 83.3714 97.2956 83.2704 97.0688 83.1982C96.8421 83.1267 96.6424 83.0906 96.4703 83.0906C96.2785 83.0906 96.1262 83.1267 96.0142 83.1982C95.9014 83.2704 95.8454 83.37 95.8454 83.4973C95.8454 83.6127 95.8836 83.7098 95.9614 83.7885C96.0405 83.8659 96.1387 83.9295 96.2567 83.98C96.3741 84.0292 96.5362 84.0836 96.7419 84.1427C97.0267 84.2266 97.2594 84.3106 97.4406 84.3945C97.6232 84.4771 97.7788 84.6004 97.9073 84.7644C98.0352 84.9271 98.0998 85.1422 98.0998 85.4098C98.0998 85.6656 98.0299 85.8873 97.8915 86.0761C97.7544 86.265 97.5646 86.4093 97.322 86.509C97.0794 86.6087 96.8012 86.6585 96.4888 86.6585C96.1598 86.6585 95.8388 86.5982 95.5264 86.4775C95.2152 86.3555 94.9423 86.1929 94.709 85.9896L95.0465 85.3075C95.2587 85.5036 95.4974 85.6577 95.761 85.7692C96.026 85.8794 96.2732 85.9345 96.502 85.9345C96.7248 85.9345 96.9008 85.8918 97.0293 85.8059C97.1572 85.7207 97.2218 85.6039 97.2218 85.457C97.2218 85.3383 97.1822 85.2406 97.1031 85.1632C97.0253 85.0845 96.9265 85.0215 96.8052 84.9743C96.6852 84.9258 96.5217 84.8713 96.3147 84.8116C96.03 84.7277 95.7966 84.6464 95.616 84.5677C95.4367 84.4876 95.2825 84.367 95.1546 84.2056C95.026 84.043 94.9621 83.8305 94.9621 83.5681C94.9621 83.3254 95.0267 83.1136 95.1572 82.9332C95.2871 82.7516 95.471 82.6106 95.7083 82.5109C95.9469 82.4112 96.2231 82.3613 96.5362 82.3613C96.8085 82.3613 97.0774 82.402 97.3431 82.482C97.61 82.5607 97.848 82.6676 98.0576 82.8021L97.7333 83.5025Z" fill="#005B24"/>
<path d="M100.334 82.4268H103.416V83.1246H101.138V84.1609H103.182V84.8587H101.138V85.9107H103.487V86.6112H100.334V82.4268Z" fill="#005B24"/>
<path d="M104.305 82.4268H105.225L106.617 85.1237L108.001 82.4268H108.919V86.6112H108.181V83.6099L106.87 86.1809H106.353L105.038 83.6099V86.6112H104.305V82.4268Z" fill="#005B24"/>
<path d="M111.426 82.4268H112.346L113.738 85.1237L115.122 82.4268H116.04V86.6112H115.302V83.6099L113.991 86.1809H113.475L112.159 83.6099V86.6112H111.426V82.4268Z" fill="#005B24"/>
<path d="M120.189 86.6112L119.814 85.7271H117.76L117.389 86.6112H116.553L118.396 82.4268H119.232L121.054 86.6112H120.189ZM118.048 85.0397H119.527L118.794 83.282L118.048 85.0397Z" fill="#005B24"/>
<path d="M123.311 82.4268C123.731 82.4268 124.107 82.516 124.439 82.6944C124.773 82.8714 125.034 83.1187 125.222 83.4368C125.41 83.7555 125.504 84.1156 125.504 84.5177C125.504 84.9217 125.409 85.2824 125.22 85.5985C125.03 85.9153 124.766 86.1639 124.429 86.3436C124.092 86.522 123.71 86.6112 123.282 86.6112H121.562V82.4268H123.311ZM123.329 85.9055C123.586 85.9055 123.817 85.8471 124.023 85.7297C124.23 85.6129 124.392 85.449 124.508 85.2391C124.624 85.0292 124.682 84.7918 124.682 84.5255C124.682 84.2579 124.621 84.0179 124.5 83.8041C124.38 83.5909 124.215 83.4256 124.004 83.3082C123.794 83.1915 123.56 83.1325 123.3 83.1325H122.367V85.9055H123.329Z" fill="#005B24"/>
<path d="M126.207 82.4268H129.289V83.1246H127.011V84.1609H129.055V84.8587H127.011V85.9107H129.361V86.6112H126.207V82.4268Z" fill="#005B24"/>
<path d="M130.18 82.4268H130.984V86.6112H130.18V82.4268Z" fill="#005B24"/>
<path d="M134.649 86.6112L133.921 85.3729C133.89 85.3781 133.84 85.3808 133.771 85.3808H132.822V86.6112H132.018V82.4268H133.771C134.315 82.4268 134.737 82.5527 135.034 82.8045C135.331 83.0551 135.48 83.4092 135.48 83.867C135.48 84.1943 135.408 84.4731 135.266 84.7039C135.124 84.9348 134.916 85.1079 134.644 85.2234L135.569 86.6112H134.649ZM132.822 84.6751H133.771C134.077 84.6751 134.31 84.6095 134.47 84.4783C134.629 84.3458 134.71 84.1497 134.71 83.8906C134.71 83.6355 134.629 83.444 134.47 83.3161C134.31 83.1889 134.077 83.1246 133.771 83.1246H132.822V84.6751Z" fill="#005B24"/>
<path d="M139.476 86.6112L139.101 85.7271H137.047L136.676 86.6112H135.84L137.683 82.4268H138.519L140.341 86.6112H139.476ZM137.335 85.0397H138.814L138.081 83.282L137.335 85.0397Z" fill="#005B24"/>
</svg>
